<?xml version="1.0" standalone="no"?>
<!DOCTYPE svg PUBLIC "-//W3C//DTD SVG 20010904//EN"
 "http://www.w3.org/TR/2001/REC-SVG-20010904/DTD/svg10.dtd">
<svg version="1.0" xmlns="http://www.w3.org/2000/svg"
 width="1366.000000pt" height="768.000000pt" viewBox="0 0 1366.000000 768.000000"
 preserveAspectRatio="xMidYMid meet">

<g transform="translate(0.000000,768.000000) scale(0.100000,-0.100000)"
fill="#000000" stroke="none">
<path d="M9710 4425 c0 -20 5 -25 25 -25 20 0 25 5 25 25 0 20 -5 25 -25 25
-20 0 -25 -5 -25 -25z"/>
<path d="M8330 4395 c0 -20 5 -25 25 -25 20 0 25 5 25 25 0 20 -5 25 -25 25
-20 0 -25 -5 -25 -25z"/>
<path d="M8420 4395 c0 -20 5 -25 25 -25 20 0 25 5 25 25 0 20 -5 25 -25 25
-20 0 -25 -5 -25 -25z"/>
<path d="M5670 4223 c0 -76 4 -143 8 -149 21 -32 53 -34 489 -34 332 0 444 3
463 13 36 18 49 67 49 195 l1 112 -30 0 -30 0 0 -115 c0 -108 -1 -115 -22
-129 -13 -8 -44 -14 -70 -15 l-48 0 0 84 0 85 -30 0 -30 0 0 -75 c0 -85 -9
-96 -76 -92 -36 2 -39 5 -44 37 -14 81 -67 130 -142 130 -55 0 -123 -33 -112
-53 20 -34 26 -37 47 -22 36 25 89 19 120 -13 14 -15 28 -39 29 -52 l3 -25
-248 0 c-235 0 -249 1 -263 19 -10 14 -14 50 -14 128 l0 108 -25 0 -25 0 0
-137z"/>
<path d="M6430 4335 c0 -20 5 -25 25 -25 20 0 25 5 25 25 0 20 -5 25 -25 25
-20 0 -25 -5 -25 -25z"/>
<path d="M6760 4200 l0 -160 25 0 25 0 0 160 0 160 -25 0 -25 0 0 -160z"/>
<path d="M7070 4335 c0 -20 5 -25 25 -25 20 0 25 5 25 25 0 20 -5 25 -25 25
-20 0 -25 -5 -25 -25z"/>
<path d="M7960 4335 c0 -20 5 -25 25 -25 20 0 25 5 25 25 0 20 -5 25 -25 25
-20 0 -25 -5 -25 -25z"/>
<path d="M8050 4335 c0 -20 5 -25 25 -25 20 0 25 5 25 25 0 20 -5 25 -25 25
-20 0 -25 -5 -25 -25z"/>
<path d="M8644 4287 l-42 -72 74 -5 c50 -4 79 -11 93 -24 21 -19 43 -71 34
-80 -12 -12 -258 -6 -283 7 -24 12 -25 17 -28 110 l-3 97 -64 0 c-80 0 -110
-11 -130 -49 -30 -59 -12 -169 30 -185 26 -10 83 -7 90 4 10 16 23 12 30 -8
11 -35 49 -42 240 -42 l185 0 0 36 c0 102 -49 179 -121 190 -21 4 -39 9 -39
13 0 3 9 21 20 39 26 42 26 42 -12 42 -30 0 -36 -6 -74 -73z m-214 -65 c0 -54
-21 -92 -51 -92 -28 0 -49 54 -38 94 10 35 24 46 62 46 26 0 27 -2 27 -48z"/>
<path d="M9670 4335 c0 -20 5 -25 25 -25 20 0 25 5 25 25 0 20 -5 25 -25 25
-20 0 -25 -5 -25 -25z"/>
<path d="M9760 4335 c0 -18 5 -25 20 -25 15 0 20 7 20 25 0 18 -5 25 -20 25
-15 0 -20 -7 -20 -25z"/>
<path d="M5430 4311 c0 -28 3 -31 29 -31 20 0 36 -9 50 -26 29 -37 26 -44 -14
-44 -78 0 -125 -51 -125 -134 0 -36 6 -52 28 -77 24 -27 37 -33 85 -37 l57 -4
0 29 c0 28 -3 31 -40 36 -53 7 -70 22 -70 62 0 44 16 54 95 62 l67 6 -5 50
c-10 79 -48 122 -121 134 -35 5 -36 5 -36 -26z"/>
<path d="M7070 4160 c0 -97 -2 -112 -20 -130 -11 -11 -24 -20 -30 -20 -5 0
-10 -11 -10 -25 0 -19 5 -25 20 -25 35 0 79 29 86 55 l6 25 160 0 c145 0 162
-2 185 -20 15 -12 41 -20 63 -20 22 0 48 8 63 20 23 19 40 20 231 20 129 0
214 4 229 11 36 16 47 50 47 139 l0 80 -30 0 -30 0 0 -75 c0 -61 -3 -76 -17
-83 -10 -5 -101 -9 -203 -8 l-184 1 -7 33 c-11 55 -44 82 -101 82 -54 0 -83
-21 -94 -67 -11 -52 -12 -53 -64 -53 l-50 0 0 85 0 85 -30 0 -30 0 0 -75 c0
-86 -11 -98 -83 -93 l-42 3 -3 83 -3 82 -29 0 -30 0 0 -110z m488 -2 c17 -17
15 -83 -3 -98 -21 -18 -48 -8 -63 23 -27 56 26 115 66 75z"/>
<path d="M9000 4160 c0 -97 -2 -112 -20 -130 -11 -11 -24 -20 -30 -20 -5 0
-10 -11 -10 -25 0 -19 5 -25 20 -25 35 0 79 29 86 55 l6 25 382 0 c284 0 387
3 406 13 39 19 60 72 60 150 l0 67 -30 0 -30 0 0 -67 c0 -80 -7 -93 -46 -96
l-29 -2 4 83 3 82 -31 0 -31 0 0 -67 c0 -80 -7 -93 -45 -96 l-29 -2 3 83 3 82
-31 0 -31 0 0 -69 c0 -47 -5 -74 -14 -84 -12 -12 -58 -14 -258 -13 l-243 1 -3
83 -3 82 -29 0 -30 0 0 -110z"/>
<path d="M6130 3985 c0 -20 5 -25 25 -25 20 0 25 5 25 25 0 20 -5 25 -25 25
-20 0 -25 -5 -25 -25z"/>
<path d="M7180 3985 c0 -20 5 -25 25 -25 20 0 25 5 25 25 0 20 -5 25 -25 25
-20 0 -25 -5 -25 -25z"/>
<path d="M7270 3985 c0 -20 5 -25 25 -25 20 0 25 5 25 25 0 20 -5 25 -25 25
-20 0 -25 -5 -25 -25z"/>
<path d="M5420 3825 c0 -20 5 -25 25 -25 20 0 25 5 25 25 0 20 -5 25 -25 25
-20 0 -25 -5 -25 -25z"/>
<path d="M5510 3825 c0 -20 5 -25 25 -25 20 0 25 5 25 25 0 20 -5 25 -25 25
-20 0 -25 -5 -25 -25z"/>
<path d="M8230 3825 c0 -20 5 -25 25 -25 20 0 25 5 25 25 0 20 -5 25 -25 25
-20 0 -25 -5 -25 -25z"/>
<path d="M8320 3825 c0 -20 5 -25 25 -25 20 0 25 5 25 25 0 20 -5 25 -25 25
-20 0 -25 -5 -25 -25z"/>
<path d="M5840 3765 c0 -20 5 -25 25 -25 20 0 25 5 25 25 0 20 -5 25 -25 25
-20 0 -25 -5 -25 -25z"/>
<path d="M5930 3765 c0 -20 5 -25 25 -25 20 0 25 5 25 25 0 20 -5 25 -25 25
-20 0 -25 -5 -25 -25z"/>
<path d="M7340 3670 c0 -136 -2 -139 -80 -136 l-45 1 -6 50 c-8 67 -16 83 -51
101 -65 34 -137 -10 -145 -88 -7 -73 41 -127 115 -128 l27 -1 -22 -18 c-26
-21 -31 -61 -8 -61 29 0 64 23 76 51 l11 29 152 0 c101 0 159 4 176 13 36 18
49 67 49 195 l1 112 -30 0 -30 0 0 -115 c0 -108 -1 -115 -22 -129 -13 -8 -42
-14 -65 -14 l-43 -1 0 130 0 129 -30 0 -30 0 0 -120z m-202 -42 c7 -7 12 -31
12 -55 0 -36 -3 -43 -20 -43 -24 0 -60 34 -60 56 0 44 41 69 68 42z"/>
<path d="M7670 3630 l0 -160 25 0 25 0 0 160 0 160 -25 0 -25 0 0 -160z"/>
<path d="M8980 3653 c0 -76 4 -143 8 -149 20 -31 54 -34 389 -34 252 0 344 4
363 13 36 18 49 67 49 195 l1 112 -30 0 -30 0 0 -115 c0 -108 -1 -115 -22
-129 -13 -8 -44 -14 -70 -15 l-48 0 0 84 0 85 -30 0 -30 0 0 -75 c0 -85 -9
-96 -76 -92 -36 2 -39 5 -44 37 -14 81 -67 130 -142 130 -55 0 -123 -33 -112
-53 20 -34 26 -37 47 -22 36 25 89 19 120 -13 14 -15 28 -39 29 -52 l3 -25
-148 0 c-184 0 -177 -6 -177 147 l0 108 -25 0 -25 0 0 -137z"/>
<path d="M9450 3765 c0 -20 5 -25 25 -25 20 0 25 5 25 25 0 20 -5 25 -25 25
-20 0 -25 -5 -25 -25z"/>
<path d="M9540 3765 c0 -20 5 -25 25 -25 20 0 25 5 25 25 0 20 -5 25 -25 25
-20 0 -25 -5 -25 -25z"/>
<path d="M9870 3630 l0 -160 25 0 25 0 0 160 0 160 -25 0 -25 0 0 -160z"/>
<path d="M5423 3740 c-65 -26 -71 -199 -8 -224 26 -10 83 -7 90 4 10 16 23 12
30 -8 12 -41 30 -42 731 -42 l675 0 -7 53 c-9 78 -21 111 -54 142 -41 39 -128
46 -177 16 -37 -23 -38 -28 -18 -55 13 -17 15 -17 37 -2 12 9 38 16 56 16 42
0 92 -46 92 -84 l0 -27 -157 3 -158 3 4 83 3 82 -31 0 -31 0 0 -67 c0 -80 -7
-93 -46 -96 l-29 -2 4 83 3 82 -31 0 -31 0 0 -67 c0 -80 -7 -93 -45 -96 l-29
-2 3 83 3 82 -31 0 -31 0 0 -67 c0 -38 -5 -75 -10 -83 -7 -12 -35 -15 -130
-17 l-120 -2 0 85 0 84 -30 0 -30 0 0 -75 c0 -86 -5 -92 -87 -94 l-53 -1 0 85
0 85 -30 0 -30 0 0 -75 c0 -66 -2 -76 -21 -86 -24 -13 -83 -6 -105 12 -10 8
-14 37 -14 105 l0 94 -67 -1 c-38 0 -78 -4 -90 -9z m97 -88 c0 -54 -21 -92
-51 -92 -28 0 -49 54 -38 94 10 35 24 46 62 46 26 0 27 -2 27 -48z"/>
<path d="M8233 3740 c-65 -26 -71 -199 -8 -224 26 -10 83 -7 90 4 10 16 23 12
30 -8 3 -11 17 -24 31 -30 32 -15 255 -16 287 -1 36 16 47 50 47 139 l0 80
-30 0 -30 0 0 -75 c0 -61 -3 -76 -17 -83 -28 -15 -208 -9 -227 7 -13 11 -16
33 -16 107 l0 94 -67 -1 c-38 0 -78 -4 -90 -9z m97 -88 c0 -54 -21 -92 -51
-92 -28 0 -49 54 -38 94 10 35 24 46 62 46 26 0 27 -2 27 -48z"/>
<path d="M7838 3671 c-30 -27 -33 -35 -33 -86 0 -51 3 -59 33 -86 34 -31 79
-38 100 -17 8 8 12 9 12 1 0 -6 -11 -20 -25 -31 -14 -11 -25 -29 -25 -41 0
-30 44 -28 75 4 23 22 25 32 25 111 0 97 -16 145 -56 163 -40 18 -72 13 -106
-18z m90 -43 c17 -17 15 -73 -3 -88 -22 -18 -48 -8 -59 22 -19 53 27 101 62
66z"/>
<path d="M8840 3590 c0 -97 -2 -112 -20 -130 -11 -11 -24 -20 -30 -20 -5 0
-10 -11 -10 -25 0 -28 22 -33 63 -14 43 19 51 46 55 177 l4 122 -31 0 -31 0 0
-110z"/>
<path d="M5640 3415 c0 -20 5 -25 25 -25 20 0 25 5 25 25 0 20 -5 25 -25 25
-20 0 -25 -5 -25 -25z"/>
<path d="M5730 3415 c0 -20 5 -25 25 -25 20 0 25 5 25 25 0 20 -5 25 -25 25
-20 0 -25 -5 -25 -25z"/>
<path d="M6760 3415 c0 -20 5 -25 25 -25 20 0 25 5 25 25 0 20 -5 25 -25 25
-20 0 -25 -5 -25 -25z"/>
<path d="M8570 3415 c0 -20 5 -25 25 -25 20 0 25 5 25 25 0 20 -5 25 -25 25
-20 0 -25 -5 -25 -25z"/>
<path d="M8660 3415 c0 -20 5 -25 25 -25 20 0 25 5 25 25 0 20 -5 25 -25 25
-20 0 -25 -5 -25 -25z"/>
<path d="M9240 3415 c0 -20 5 -25 25 -25 20 0 25 5 25 25 0 20 -5 25 -25 25
-20 0 -25 -5 -25 -25z"/>
<path d="M4471 3334 c0 -11 3 -14 6 -6 3 7 2 16 -1 19 -3 4 -6 -2 -5 -13z"/>
<path d="M5370 3245 c0 -13 259 -15 2275 -15 2016 0 2275 2 2275 15 0 13 -259
15 -2275 15 -2016 0 -2275 -2 -2275 -15z"/>
<path d="M4761 3124 c0 -11 3 -14 6 -6 3 7 2 16 -1 19 -3 4 -6 -2 -5 -13z"/>
<path d="M7680 2970 l0 -150 25 0 25 0 0 150 0 150 -25 0 -25 0 0 -150z"/>
<path d="M8552 3108 c-16 -16 -15 -33 4 -48 22 -19 54 12 38 37 -14 22 -27 26
-42 11z"/>
<path d="M8950 2965 l0 -145 25 0 c24 0 25 2 25 63 0 74 18 109 47 91 14 -9
19 -26 21 -83 l3 -71 31 0 31 0 -6 78 c-7 95 -11 107 -48 122 -24 10 -33 10
-54 -4 l-25 -16 0 55 c0 52 -1 55 -25 55 l-25 0 0 -145z"/>
<path d="M5380 3070 c0 -28 3 -30 35 -30 l35 0 0 -110 0 -110 25 0 25 0 0 110
0 110 35 0 c32 0 35 2 35 30 l0 30 -95 0 -95 0 0 -30z"/>
<path d="M7465 3088 c-3 -7 -23 -70 -44 -140 l-39 -128 34 0 c26 0 33 4 36 23
2 18 10 23 44 25 37 3 42 0 48 -22 5 -21 13 -26 36 -26 17 0 30 1 30 3 0 2
-18 64 -40 137 -22 73 -40 135 -40 137 0 10 -61 1 -65 -9z m49 -130 c5 -24 3
-28 -14 -28 -22 0 -23 3 -14 50 7 34 16 27 28 -22z"/>
<path d="M9413 3085 c-99 -43 -96 -210 4 -251 45 -19 93 -12 130 20 l27 23
-28 18 c-20 14 -30 15 -39 6 -6 -6 -26 -11 -43 -11 -35 0 -74 37 -74 70 0 33
39 70 74 70 17 0 37 -5 43 -11 8 -8 18 -6 37 6 22 15 24 20 14 33 -15 18 -70
42 -95 42 -10 -1 -33 -7 -50 -15z"/>
<path d="M9713 3085 c-99 -43 -96 -210 4 -251 101 -42 203 55 173 164 -11 43
-41 75 -83 91 -37 14 -55 13 -94 -4z m102 -60 c67 -66 -16 -173 -92 -120 -30
21 -38 66 -19 103 25 49 73 56 111 17z"/>
<path d="M6808 3020 c-39 -30 -53 -73 -40 -119 42 -137 219 -75 181 64 -19 67
-90 95 -141 55z m76 -56 c31 -30 14 -84 -25 -84 -23 0 -49 37 -42 59 6 17 32
41 44 41 4 0 15 -7 23 -16z"/>
<path d="M5683 3018 c-23 -11 -53 -64 -53 -93 0 -34 32 -83 62 -96 26 -11 35
-10 59 4 25 14 29 14 29 2 0 -9 10 -15 25 -15 l25 0 0 105 0 105 -25 0 c-16 0
-25 -6 -25 -16 0 -14 -2 -14 -22 0 -26 18 -44 19 -75 4z m83 -63 c14 -21 15
-31 6 -50 -16 -34 -56 -33 -78 0 -15 23 -15 27 0 50 21 32 51 32 72 0z"/>
<path d="M5910 2925 l0 -105 25 0 c24 0 25 2 25 63 0 69 16 104 44 94 13 -5
16 -21 16 -82 0 -73 1 -75 25 -75 24 0 25 3 25 54 0 65 14 106 35 106 21 0 35
-41 35 -106 0 -51 1 -54 25 -54 24 0 25 2 25 65 0 114 -44 171 -102 133 -19
-13 -25 -13 -49 1 -24 14 -29 13 -53 -2 -22 -15 -26 -15 -26 -2 0 9 -9 15 -25
15 l-25 0 0 -105z"/>
<path d="M6313 3018 c-23 -11 -53 -64 -53 -93 0 -34 32 -83 62 -96 26 -11 35
-10 59 4 25 14 29 14 29 2 0 -9 10 -15 25 -15 l25 0 0 105 0 105 -25 0 c-16 0
-25 -6 -25 -16 0 -14 -2 -14 -22 0 -26 18 -44 19 -75 4z m83 -63 c14 -21 15
-31 6 -50 -16 -34 -56 -33 -78 0 -15 23 -15 27 0 50 21 32 51 32 72 0z"/>
<path d="M6520 3026 c0 -3 16 -48 35 -101 37 -104 36 -131 -7 -137 -15 -2 -24
-11 -26 -26 -5 -30 22 -39 63 -19 32 15 37 25 75 143 22 70 40 130 40 135 0 5
-11 9 -24 9 -21 0 -28 -8 -42 -55 -10 -30 -20 -55 -23 -55 -4 0 -13 24 -21 53
-13 45 -19 52 -43 55 -15 2 -27 1 -27 -2z"/>
<path d="M7030 3000 c0 -28 2 -30 40 -30 l41 0 -41 -53 c-22 -30 -40 -64 -40
-75 0 -21 5 -22 80 -22 l80 0 0 29 c0 28 -3 30 -41 33 l-41 3 36 47 c20 26 36
58 36 72 0 26 -1 26 -75 26 l-75 0 0 -30z"/>
<path d="M8010 2925 l0 -105 25 0 c24 0 25 2 25 63 0 74 18 109 47 91 14 -9
19 -26 21 -83 l3 -71 31 0 31 0 -6 78 c-7 95 -11 107 -48 122 -24 10 -33 10
-54 -4 -22 -14 -25 -15 -25 -1 0 9 -9 15 -25 15 l-25 0 0 -105z"/>
<path d="M8303 3018 c-23 -11 -53 -64 -53 -93 0 -34 32 -83 62 -96 26 -11 35
-10 59 4 25 14 29 14 29 2 0 -9 10 -15 25 -15 l25 0 0 105 0 105 -25 0 c-16 0
-25 -6 -25 -16 0 -14 -2 -14 -22 0 -26 18 -44 19 -75 4z m83 -63 c14 -21 15
-31 6 -50 -16 -34 -56 -33 -78 0 -15 23 -15 27 0 50 21 32 51 32 72 0z"/>
<path d="M8540 2914 c0 -107 -2 -116 -20 -121 -21 -6 -35 -36 -25 -53 11 -18
45 -11 70 15 24 23 25 30 25 150 l0 125 -25 0 -25 0 0 -116z"/>
<path d="M8723 3018 c-23 -11 -53 -64 -53 -93 0 -34 32 -83 62 -96 26 -11 35
-10 59 4 25 14 29 14 29 2 0 -9 10 -15 25 -15 l25 0 0 105 0 105 -25 0 c-16 0
-25 -6 -25 -16 0 -14 -2 -14 -22 0 -26 18 -44 19 -75 4z m83 -63 c14 -21 15
-31 6 -50 -16 -34 -56 -33 -78 0 -15 23 -15 27 0 50 21 32 51 32 72 0z"/>
<path d="M7810 2965 c0 -24 3 -25 60 -25 57 0 60 1 60 25 0 24 -3 25 -60 25
-57 0 -60 -1 -60 -25z"/>
<path d="M6893 2693 c-19 -7 -16 -53 3 -60 24 -9 46 24 33 48 -10 19 -15 21
-36 12z"/>
<path d="M7400 2550 l0 -150 25 0 25 0 0 150 0 150 -25 0 -25 0 0 -150z"/>
<path d="M8170 2640 l0 -59 -29 16 c-24 14 -33 15 -59 4 -30 -13 -62 -62 -62
-96 0 -34 32 -83 62 -96 26 -11 35 -10 59 4 25 14 29 14 29 2 0 -9 10 -15 25
-15 l25 0 0 150 0 150 -25 0 c-24 0 -25 -3 -25 -60z m-14 -105 c36 -54 -33
-107 -70 -54 -14 21 -12 42 7 67 16 20 45 14 63 -13z"/>
<path d="M9013 2693 c-19 -7 -16 -53 3 -60 24 -9 46 24 33 48 -10 19 -15 21
-36 12z"/>
<path d="M9443 2693 c-19 -7 -16 -53 3 -60 24 -9 46 24 33 48 -10 19 -15 21
-36 12z"/>
<path d="M4145 2680 c3 -5 8 -10 11 -10 2 0 4 5 4 10 0 6 -5 10 -11 10 -5 0
-7 -4 -4 -10z"/>
<path d="M5463 2665 c-99 -43 -96 -210 4 -251 45 -19 93 -12 130 20 l27 23
-28 18 c-20 14 -30 15 -39 6 -6 -6 -26 -11 -43 -11 -35 0 -74 37 -74 70 0 33
39 70 74 70 17 0 37 -5 43 -11 8 -8 18 -6 37 6 22 15 24 20 14 33 -15 18 -70
42 -95 42 -10 -1 -33 -7 -50 -15z"/>
<path d="M8360 2540 l0 -140 80 0 80 0 0 35 0 35 -55 0 -55 0 0 105 0 105 -25
0 -25 0 0 -140z"/>
<path d="M9300 2645 c0 -24 -5 -35 -15 -35 -10 0 -15 -10 -15 -30 0 -16 4 -30
9 -30 4 0 11 -25 14 -56 3 -30 11 -62 17 -69 14 -17 69 -30 81 -18 12 12 -1
53 -17 53 -17 0 -34 32 -34 64 0 21 5 26 25 26 21 0 25 5 25 30 0 25 -4 30
-25 30 -22 0 -25 4 -25 35 0 28 -4 35 -20 35 -16 0 -20 -7 -20 -35z"/>
<path d="M4920 2642 c6 -13 14 -21 18 -18 3 4 -2 14 -12 24 -18 16 -18 16 -6
-6z"/>
<path d="M5698 2600 c-39 -30 -53 -73 -40 -119 42 -137 219 -75 181 64 -19 67
-90 95 -141 55z m76 -56 c31 -30 14 -84 -25 -84 -23 0 -49 37 -42 59 6 17 32
41 44 41 4 0 15 -7 23 -16z"/>
<path d="M8588 2600 c-39 -30 -53 -73 -40 -119 42 -137 219 -75 181 64 -19 67
-90 95 -141 55z m76 -56 c31 -30 14 -84 -25 -84 -23 0 -49 37 -42 59 6 17 32
41 44 41 4 0 15 -7 23 -16z"/>
<path d="M5870 2505 l0 -105 25 0 c24 0 25 2 25 63 0 69 16 104 44 94 13 -5
16 -21 16 -82 0 -73 1 -75 25 -75 24 0 25 3 25 54 0 65 14 106 35 106 21 0 35
-41 35 -106 0 -51 1 -54 25 -54 24 0 25 2 25 65 0 114 -44 171 -102 133 -19
-13 -25 -13 -49 1 -24 14 -29 13 -53 -2 -22 -15 -26 -15 -26 -2 0 9 -9 15 -25
15 l-25 0 0 -105z"/>
<path d="M6190 2505 l0 -105 25 0 c24 0 25 2 25 63 0 69 16 104 44 94 13 -5
16 -21 16 -82 0 -73 1 -75 25 -75 24 0 25 3 25 54 0 65 14 106 35 106 21 0 35
-41 35 -106 0 -51 1 -54 25 -54 24 0 25 2 25 65 0 114 -44 171 -102 133 -19
-13 -25 -13 -49 1 -24 14 -29 13 -53 -2 -22 -15 -26 -15 -26 -2 0 9 -9 15 -25
15 l-25 0 0 -105z"/>
<path d="M6555 2601 c-88 -36 -77 -176 15 -196 30 -7 100 17 100 34 0 18 -32
29 -70 24 -22 -3 -40 -1 -44 6 -5 8 13 11 58 11 l66 0 0 31 c0 41 -15 66 -50
84 -32 17 -45 18 -75 6z m70 -61 c4 -6 -10 -10 -35 -10 -25 0 -39 4 -35 10 3
6 19 10 35 10 16 0 32 -4 35 -10z"/>
<path d="M6720 2505 l0 -105 25 0 c23 0 25 3 25 51 0 60 12 87 46 99 17 7 24
17 24 35 0 29 -16 32 -48 9 -20 -14 -22 -14 -22 0 0 10 -9 16 -25 16 l-25 0 0
-105z"/>
<path d="M6880 2505 l0 -105 25 0 25 0 0 105 0 105 -25 0 -25 0 0 -105z"/>
<path d="M7025 2601 c-65 -28 -82 -118 -32 -168 33 -34 94 -38 126 -9 20 18
20 20 3 32 -10 8 -30 11 -48 8 -42 -8 -69 25 -51 63 10 22 16 24 48 19 45 -7
72 15 48 39 -18 19 -68 27 -94 16z"/>
<path d="M7213 2598 c-23 -11 -53 -64 -53 -93 0 -34 32 -83 62 -96 26 -11 35
-10 59 4 25 14 29 14 29 2 0 -9 10 -15 25 -15 l25 0 0 105 0 105 -25 0 c-16 0
-25 -6 -25 -16 0 -14 -2 -14 -22 0 -26 18 -44 19 -75 4z m83 -63 c14 -21 15
-31 6 -50 -16 -34 -56 -33 -78 0 -15 23 -15 27 0 50 21 32 51 32 72 0z"/>
<path d="M7623 2598 c-23 -11 -53 -64 -53 -93 0 -34 32 -83 62 -96 26 -11 35
-10 59 4 25 14 29 14 29 2 0 -9 10 -15 25 -15 l25 0 0 105 0 105 -25 0 c-16 0
-25 -6 -25 -16 0 -14 -2 -14 -22 0 -26 18 -44 19 -75 4z m83 -63 c14 -21 15
-31 6 -50 -16 -34 -56 -33 -78 0 -15 23 -15 27 0 50 21 32 51 32 72 0z"/>
<path d="M7810 2505 l0 -105 25 0 c24 0 25 2 25 63 0 74 18 109 47 91 14 -9
19 -26 21 -83 l3 -71 31 0 31 0 -6 78 c-7 95 -11 107 -48 122 -24 10 -33 10
-54 -4 -22 -14 -25 -15 -25 -1 0 9 -9 15 -25 15 l-25 0 0 -105z"/>
<path d="M8813 2598 c-23 -11 -53 -64 -53 -93 0 -64 67 -119 117 -96 33 15 37
11 16 -18 -13 -19 -22 -22 -52 -18 -21 2 -44 -1 -54 -8 -16 -11 -16 -13 2 -29
25 -23 80 -30 111 -14 44 23 60 71 60 186 l0 102 -25 0 c-16 0 -25 -6 -25 -16
0 -14 -2 -14 -22 0 -26 18 -44 19 -75 4z m83 -63 c36 -54 -33 -107 -70 -54
-14 21 -12 42 7 67 16 20 45 14 63 -13z"/>
<path d="M9000 2505 l0 -105 25 0 25 0 0 105 0 105 -25 0 -25 0 0 -105z"/>
<path d="M9123 2600 c-27 -11 -39 -51 -24 -79 6 -11 29 -26 51 -32 52 -16 52
-34 1 -25 -28 4 -42 2 -51 -9 -16 -19 -7 -31 36 -45 45 -15 79 -6 100 26 24
35 7 68 -43 84 -57 19 -66 34 -16 27 50 -6 77 14 51 39 -18 19 -76 27 -105 14z"/>
<path d="M9430 2505 l0 -105 25 0 25 0 0 105 0 105 -25 0 -25 0 0 -105z"/>
<path d="M9585 2601 c-65 -28 -82 -118 -32 -168 33 -34 94 -38 126 -9 20 18
20 20 3 32 -10 8 -30 11 -48 8 -42 -8 -69 25 -51 63 10 22 16 24 48 19 45 -7
72 15 48 39 -18 19 -68 27 -94 16z"/>
<path d="M9763 2600 c-27 -11 -39 -51 -24 -79 6 -11 29 -26 51 -32 52 -16 52
-34 1 -25 -28 4 -42 2 -51 -9 -16 -19 -7 -31 36 -45 45 -15 79 -6 100 26 24
35 7 68 -43 84 -57 19 -66 34 -16 27 50 -6 77 14 51 39 -18 19 -76 27 -105 14z"/>
<path d="M4245 2580 c3 -5 8 -10 11 -10 2 0 4 5 4 10 0 6 -5 10 -11 10 -5 0
-7 -4 -4 -10z"/>
<path d="M4466 2567 c3 -10 9 -15 12 -12 3 3 0 11 -7 18 -10 9 -11 8 -5 -6z"/>
<path d="M4600 2430 c0 -5 5 -10 11 -10 5 0 7 5 4 10 -3 6 -8 10 -11 10 -2 0
-4 -4 -4 -10z"/>
<path d="M4625 2400 c3 -5 8 -10 11 -10 2 0 4 5 4 10 0 6 -5 10 -11 10 -5 0
-7 -4 -4 -10z"/>
</g>
</svg>
